<mxfile host="Electron" modified="2023-06-25T17:15:34.966Z" agent="Mozilla/5.0 (Windows NT 10.0; Win64; x64) AppleWebKit/537.36 (KHTML, like Gecko) draw.io/21.2.8 Chrome/112.0.5615.165 Electron/24.2.0 Safari/537.36" etag="OTTYs7UOPM1qP5RUShbz" version="21.2.8" type="device" pages="2">
  <diagram id="P2roQQ4Z8uFhgxpEA7Dc" name="Page-1">
    <mxGraphModel dx="1038" dy="608" grid="1" gridSize="10" guides="1" tooltips="1" connect="1" arrows="1" fold="1" page="1" pageScale="1" pageWidth="850" pageHeight="1100" math="0" shadow="0">
      <root>
        <mxCell id="0" />
        <mxCell id="1" parent="0" />
        <mxCell id="TW6FKX5Xv9ZzFJC3Ceqp-14" style="edgeStyle=orthogonalEdgeStyle;rounded=0;orthogonalLoop=1;jettySize=auto;html=1;entryX=0;entryY=0.5;entryDx=0;entryDy=0;entryPerimeter=0;sketch=1;curveFitting=1;jiggle=2;fillColor=#dae8fc;strokeColor=#6c8ebf;" parent="1" source="ldihhb07NF6keeZf5SFv-14" target="ldihhb07NF6keeZf5SFv-16" edge="1">
          <mxGeometry relative="1" as="geometry" />
        </mxCell>
        <mxCell id="ldihhb07NF6keeZf5SFv-14" value="&lt;font color=&quot;#8cb5ee&quot;&gt;&lt;b&gt;Generate Canoncial Request&lt;/b&gt;&lt;/font&gt;" style="rounded=1;whiteSpace=wrap;html=1;fillColor=none;strokeColor=#6c8ebf;sketch=1;curveFitting=1;jiggle=2;verticalAlign=bottom;fontFamily=Verdana;dashed=1;labelPosition=center;verticalLabelPosition=top;align=center;" parent="1" vertex="1">
          <mxGeometry x="160" y="80" width="410" height="320" as="geometry" />
        </mxCell>
        <mxCell id="ldihhb07NF6keeZf5SFv-10" value="" style="rounded=1;whiteSpace=wrap;html=1;fillColor=none;dashed=1;strokeColor=#6c8ebf;sketch=1;curveFitting=1;jiggle=2;" parent="1" vertex="1">
          <mxGeometry x="310" y="147.15" width="234.1" height="190" as="geometry" />
        </mxCell>
        <mxCell id="TW6FKX5Xv9ZzFJC3Ceqp-8" style="edgeStyle=orthogonalEdgeStyle;rounded=0;orthogonalLoop=1;jettySize=auto;html=1;entryX=0;entryY=0.5;entryDx=0;entryDy=0;sketch=1;curveFitting=1;jiggle=2;fillColor=#dae8fc;strokeColor=#6c8ebf;" parent="1" source="Ro5z9y-FDL-VQz8w_BYz-1" target="ldihhb07NF6keeZf5SFv-10" edge="1">
          <mxGeometry relative="1" as="geometry">
            <Array as="points">
              <mxPoint x="270" y="117.72" />
              <mxPoint x="270" y="241.72" />
            </Array>
          </mxGeometry>
        </mxCell>
        <mxCell id="Ro5z9y-FDL-VQz8w_BYz-1" value="&lt;b&gt;&lt;font color=&quot;#8cb5ee&quot;&gt;AWS SDK&lt;/font&gt;&lt;/b&gt;" style="sketch=0;outlineConnect=0;fillColor=#8CB5EE;strokeColor=#b85450;dashed=0;verticalLabelPosition=bottom;verticalAlign=top;align=center;html=1;fontSize=12;fontStyle=0;aspect=fixed;pointerEvents=1;shape=mxgraph.aws4.external_sdk;fontFamily=Verdana;gradientColor=#F34482;" parent="1" vertex="1">
          <mxGeometry x="198.21" y="92.85" width="43.59" height="50" as="geometry" />
        </mxCell>
        <mxCell id="TW6FKX5Xv9ZzFJC3Ceqp-10" style="edgeStyle=orthogonalEdgeStyle;rounded=0;orthogonalLoop=1;jettySize=auto;html=1;entryX=0;entryY=0.5;entryDx=0;entryDy=0;sketch=1;curveFitting=1;jiggle=2;fillColor=#dae8fc;strokeColor=#6c8ebf;" parent="1" target="ldihhb07NF6keeZf5SFv-10" edge="1">
          <mxGeometry relative="1" as="geometry">
            <mxPoint x="244.10000000000014" y="242.14999999999998" as="sourcePoint" />
          </mxGeometry>
        </mxCell>
        <mxCell id="TW6FKX5Xv9ZzFJC3Ceqp-9" style="edgeStyle=orthogonalEdgeStyle;rounded=0;orthogonalLoop=1;jettySize=auto;html=1;exitX=1;exitY=0.5;exitDx=0;exitDy=0;exitPerimeter=0;entryX=0;entryY=0.5;entryDx=0;entryDy=0;sketch=1;curveFitting=1;jiggle=2;fillColor=#dae8fc;strokeColor=#6c8ebf;" parent="1" source="Ro5z9y-FDL-VQz8w_BYz-6" target="ldihhb07NF6keeZf5SFv-10" edge="1">
          <mxGeometry relative="1" as="geometry">
            <Array as="points">
              <mxPoint x="270" y="336.72" />
              <mxPoint x="270" y="241.72" />
            </Array>
          </mxGeometry>
        </mxCell>
        <mxCell id="Ro5z9y-FDL-VQz8w_BYz-6" value="&lt;font color=&quot;#8cb5ee&quot;&gt;&lt;b&gt;IaC Tool&lt;/b&gt;&lt;/font&gt;" style="sketch=0;points=[[0,0,0],[0.25,0,0],[0.5,0,0],[0.75,0,0],[1,0,0],[0,1,0],[0.25,1,0],[0.5,1,0],[0.75,1,0],[1,1,0],[0,0.25,0],[0,0.5,0],[0,0.75,0],[1,0.25,0],[1,0.5,0],[1,0.75,0]];points=[[0,0,0],[0.25,0,0],[0.5,0,0],[0.75,0,0],[1,0,0],[0,1,0],[0.25,1,0],[0.5,1,0],[0.75,1,0],[1,1,0],[0,0.25,0],[0,0.5,0],[0,0.75,0],[1,0.25,0],[1,0.5,0],[1,0.75,0]];outlineConnect=0;fontColor=#232F3E;gradientColor=#F34482;gradientDirection=north;fillColor=#8CB5EE;strokeColor=#ffffff;dashed=0;verticalLabelPosition=bottom;verticalAlign=top;align=center;html=1;fontSize=12;fontStyle=0;aspect=fixed;shape=mxgraph.aws4.resourceIcon;resIcon=mxgraph.aws4.cloudformation;fontFamily=Verdana;" parent="1" vertex="1">
          <mxGeometry x="195.34" y="320" width="46.8" height="46.8" as="geometry" />
        </mxCell>
        <mxCell id="TW6FKX5Xv9ZzFJC3Ceqp-13" style="edgeStyle=orthogonalEdgeStyle;rounded=0;orthogonalLoop=1;jettySize=auto;html=1;sketch=1;curveFitting=1;jiggle=2;fillColor=#dae8fc;strokeColor=#6c8ebf;" parent="1" source="Ro5z9y-FDL-VQz8w_BYz-7" target="ldihhb07NF6keeZf5SFv-11" edge="1">
          <mxGeometry relative="1" as="geometry">
            <Array as="points">
              <mxPoint x="420" y="274.72" />
              <mxPoint x="420" y="237.72" />
            </Array>
          </mxGeometry>
        </mxCell>
        <mxCell id="Ro5z9y-FDL-VQz8w_BYz-7" value="&lt;b&gt;&lt;font color=&quot;#8cb5ee&quot;&gt;Request&lt;br&gt;Parameters&lt;/font&gt;&lt;/b&gt;" style="sketch=0;pointerEvents=1;shadow=0;dashed=0;html=1;strokeColor=none;fillColor=#8CB5EE;labelPosition=center;verticalLabelPosition=bottom;verticalAlign=top;outlineConnect=0;align=center;shape=mxgraph.office.concepts.document;fontFamily=Verdana;" parent="1" vertex="1">
          <mxGeometry x="345" y="255.72" width="30" height="34.28" as="geometry" />
        </mxCell>
        <mxCell id="TW6FKX5Xv9ZzFJC3Ceqp-7" value="" style="edgeStyle=orthogonalEdgeStyle;rounded=0;orthogonalLoop=1;jettySize=auto;html=1;sketch=1;curveFitting=1;jiggle=2;fontFamily=Verdana;labelPosition=center;verticalLabelPosition=bottom;align=center;verticalAlign=top;fillColor=#dae8fc;strokeColor=#6c8ebf;labelBackgroundColor=none;" parent="1" source="ldihhb07NF6keeZf5SFv-1" target="ldihhb07NF6keeZf5SFv-14" edge="1">
          <mxGeometry x="-0.044" y="-3" relative="1" as="geometry">
            <mxPoint y="1" as="offset" />
          </mxGeometry>
        </mxCell>
        <mxCell id="ldihhb07NF6keeZf5SFv-1" value="&lt;font color=&quot;#8cb5ee&quot;&gt;&lt;b&gt;User&lt;/b&gt;&lt;/font&gt;" style="sketch=1;outlineConnect=0;fillColor=#8CB5EE;strokeColor=#6c8ebf;dashed=0;verticalLabelPosition=bottom;verticalAlign=top;align=center;html=1;fontSize=12;fontStyle=0;aspect=fixed;pointerEvents=1;shape=mxgraph.aws4.user;curveFitting=1;jiggle=2;fontFamily=Verdana;" parent="1" vertex="1">
          <mxGeometry x="10" y="222.13" width="35.75" height="35.75" as="geometry" />
        </mxCell>
        <mxCell id="TW6FKX5Xv9ZzFJC3Ceqp-11" style="edgeStyle=orthogonalEdgeStyle;rounded=0;orthogonalLoop=1;jettySize=auto;html=1;sketch=1;curveFitting=1;jiggle=2;fillColor=#dae8fc;strokeColor=#6c8ebf;" parent="1" source="ldihhb07NF6keeZf5SFv-7" target="ldihhb07NF6keeZf5SFv-11" edge="1">
          <mxGeometry relative="1" as="geometry">
            <Array as="points">
              <mxPoint x="420" y="187" />
              <mxPoint x="420" y="238" />
            </Array>
          </mxGeometry>
        </mxCell>
        <mxCell id="ldihhb07NF6keeZf5SFv-7" value="&lt;b&gt;&lt;font color=&quot;#8cb5ee&quot;&gt;AWS&lt;br&gt;Credentials&lt;/font&gt;&lt;/b&gt;" style="sketch=0;outlineConnect=0;fontColor=#232F3E;gradientColor=none;fillColor=#8CB5EE;strokeColor=none;dashed=0;verticalLabelPosition=bottom;verticalAlign=top;align=center;html=1;fontSize=12;fontStyle=0;aspect=fixed;pointerEvents=1;shape=mxgraph.aws4.data_encryption_key;fontFamily=Verdana;" parent="1" vertex="1">
          <mxGeometry x="344.1000000000001" y="167.15" width="31.79" height="40" as="geometry" />
        </mxCell>
        <mxCell id="ldihhb07NF6keeZf5SFv-11" value="&lt;b&gt;&lt;font color=&quot;#8cb5ee&quot;&gt;Signed&lt;br&gt;Canonical&lt;br&gt;Request&lt;/font&gt;&lt;/b&gt;" style="sketch=0;outlineConnect=0;fontColor=#232F3E;gradientColor=none;strokeColor=#8CB5EE;fillColor=none;dashed=0;verticalLabelPosition=bottom;verticalAlign=top;align=center;html=1;fontSize=12;fontStyle=0;aspect=fixed;shape=mxgraph.aws4.resourceIcon;resIcon=mxgraph.aws4.encrypted_data;fontFamily=Verdana;" parent="1" vertex="1">
          <mxGeometry x="450" y="206.4" width="55.75" height="55.75" as="geometry" />
        </mxCell>
        <mxCell id="ldihhb07NF6keeZf5SFv-15" value="&lt;font color=&quot;#8cb5ee&quot;&gt;&lt;b&gt;AWS Cloud&lt;/b&gt;&lt;/font&gt;" style="sketch=1;outlineConnect=0;html=1;whiteSpace=wrap;fontSize=12;fontStyle=0;shape=mxgraph.aws4.group;grIcon=mxgraph.aws4.group_aws_cloud;strokeColor=#6c8ebf;fillColor=none;verticalAlign=top;align=left;spacingLeft=30;dashed=1;curveFitting=1;jiggle=2;fontFamily=Verdana;" parent="1" vertex="1">
          <mxGeometry x="630" y="151.43" width="200" height="180" as="geometry" />
        </mxCell>
        <mxCell id="TW6FKX5Xv9ZzFJC3Ceqp-2" value="" style="edgeStyle=orthogonalEdgeStyle;rounded=0;orthogonalLoop=1;jettySize=auto;html=1;exitX=1;exitY=0.5;exitDx=0;exitDy=0;exitPerimeter=0;sketch=1;curveFitting=1;jiggle=2;fillColor=#dae8fc;strokeColor=#6c8ebf;" parent="1" source="ldihhb07NF6keeZf5SFv-16" target="TW6FKX5Xv9ZzFJC3Ceqp-1" edge="1">
          <mxGeometry relative="1" as="geometry" />
        </mxCell>
        <mxCell id="ldihhb07NF6keeZf5SFv-16" value="&lt;font color=&quot;#8cb5ee&quot;&gt;&lt;b&gt;Validate&lt;br&gt;Request&lt;br&gt;Signature&lt;/b&gt;&lt;/font&gt;" style="outlineConnect=0;dashed=0;verticalLabelPosition=bottom;verticalAlign=top;align=left;html=1;shape=mxgraph.aws3.endpoints;fillColor=#F58534;gradientColor=none;labelPosition=right;fontFamily=Verdana;" parent="1" vertex="1">
          <mxGeometry x="610" y="220" width="38.33" height="40" as="geometry" />
        </mxCell>
        <mxCell id="TW6FKX5Xv9ZzFJC3Ceqp-1" value="&lt;b&gt;&lt;font color=&quot;#8cb5ee&quot;&gt;AWS&lt;br&gt;Service&lt;/font&gt;&lt;/b&gt;" style="outlineConnect=0;dashed=0;verticalLabelPosition=bottom;verticalAlign=top;align=center;html=1;shape=mxgraph.aws3.cloud_2;fillColor=#F58534;gradientColor=none;fontFamily=Verdana;" parent="1" vertex="1">
          <mxGeometry x="770" y="222.13" width="35.75" height="35.75" as="geometry" />
        </mxCell>
        <mxCell id="ZYFPah5EgF5g-T7eSAxl-1" value="&lt;b&gt;Invokes&lt;br&gt;AWS API&lt;/b&gt;" style="text;html=1;align=center;verticalAlign=middle;resizable=0;points=[];autosize=1;strokeColor=none;fillColor=none;fontFamily=Verdana;fontColor=#8CB5EE;" parent="1" vertex="1">
          <mxGeometry x="60" y="237.15" width="80" height="40" as="geometry" />
        </mxCell>
        <mxCell id="ZYFPah5EgF5g-T7eSAxl-4" value="&lt;b&gt;&lt;font color=&quot;#8cb5ee&quot;&gt;CLI&lt;/font&gt;&lt;/b&gt;" style="sketch=0;points=[[0,0,0],[0.25,0,0],[0.5,0,0],[0.75,0,0],[1,0,0],[0,1,0],[0.25,1,0],[0.5,1,0],[0.75,1,0],[1,1,0],[0,0.25,0],[0,0.5,0],[0,0.75,0],[1,0.25,0],[1,0.5,0],[1,0.75,0]];points=[[0,0,0],[0.25,0,0],[0.5,0,0],[0.75,0,0],[1,0,0],[0,1,0],[0.25,1,0],[0.5,1,0],[0.75,1,0],[1,1,0],[0,0.25,0],[0,0.5,0],[0,0.75,0],[1,0.25,0],[1,0.5,0],[1,0.75,0]];outlineConnect=0;fontColor=#232F3E;gradientColor=#F34482;gradientDirection=north;fillColor=#8CB5EE;strokeColor=#ffffff;dashed=0;verticalLabelPosition=bottom;verticalAlign=top;align=center;html=1;fontSize=12;fontStyle=0;aspect=fixed;shape=mxgraph.aws4.resourceIcon;resIcon=mxgraph.aws4.command_line_interface;shadow=1;labelBackgroundColor=none;fontFamily=Verdana;" parent="1" vertex="1">
          <mxGeometry x="196.6" y="219.29" width="44.28" height="44.28" as="geometry" />
        </mxCell>
      </root>
    </mxGraphModel>
  </diagram>
  <diagram id="wt9jBZ7fw4YKMHmINseS" name="Page-2">
    <mxGraphModel dx="694" dy="425" grid="1" gridSize="10" guides="1" tooltips="1" connect="1" arrows="1" fold="1" page="1" pageScale="1" pageWidth="850" pageHeight="1100" math="0" shadow="0">
      <root>
        <mxCell id="0" />
        <mxCell id="1" parent="0" />
      </root>
    </mxGraphModel>
  </diagram>
</mxfile>
